<svg width="612" height="273" viewBox="0 0 612 273" fill="none" xmlns="http://www.w3.org/2000/svg">
<path d="M72.788 44.404L79.476 65H65.948L60.4 46.304H50.824L47.48 65H35.852L45.276 11.344H68C79.476 11.344 85.176 15.904 85.176 25.024C85.176 34.068 80.996 41.592 72.788 44.404ZM67.164 21.452H55.156L52.648 36.044H64.048C69.596 36.044 73.168 32.244 73.168 26.392C73.168 22.744 71.192 21.452 67.164 21.452ZM110.121 24.112C119.469 24.112 124.941 29.888 124.941 38.628C124.941 42.048 124.181 45.696 122.585 49.496H98.6452C98.5692 54.74 101.761 57.172 106.549 57.172C109.969 57.172 113.769 56.032 117.797 53.828L120.001 61.58C115.061 64.696 109.893 66.292 104.649 66.292C94.0092 66.292 86.9412 60.06 86.9412 49.344C86.9412 42.58 89.1452 36.728 93.5532 31.636C97.9612 26.62 103.509 24.112 110.121 24.112ZM99.9372 41.82H113.997C114.377 40.528 114.605 39.312 114.605 38.324C114.605 35.056 112.629 33.156 109.285 33.156C105.257 33.156 101.229 36.044 99.9372 41.82ZM128.207 65L135.199 25.556H145.003L144.775 29.812C149.183 25.936 153.515 24.036 157.847 24.036C162.331 24.036 165.903 26.316 167.423 29.888C171.907 25.936 176.771 23.96 181.863 23.96C188.551 23.96 193.339 28.064 193.339 35.74C193.339 37.184 193.187 38.856 192.883 40.68L188.551 65H177.075L181.179 41.668C181.407 40.224 181.559 39.084 181.559 38.172C181.559 35.36 180.191 33.992 177.379 33.992C174.415 33.992 171.603 35.436 168.943 38.4C168.943 38.476 168.715 39.616 168.335 41.82L164.231 65H152.679L156.859 41.06C157.087 39.16 157.239 38.096 157.239 37.868C157.239 35.284 155.947 33.992 153.363 33.992C150.551 33.992 147.663 35.512 144.547 38.476L139.759 65H128.207ZM221.718 24.112C231.522 24.112 236.994 28.672 236.994 37.792C236.994 39.16 236.766 41.44 236.234 44.556L232.662 65H222.402L222.858 62.036C219.286 64.848 215.258 66.216 210.85 66.216C203.554 66.216 199.07 62.036 199.07 55.12C199.07 44.708 206.746 39.54 218.602 39.54C221.262 39.54 223.694 39.768 225.898 40.224C226.126 39.388 226.202 38.628 226.202 37.944C226.506 34.6 223.846 33.384 219.818 33.384C217.766 33.384 215.486 33.688 213.054 34.372C210.622 35.056 208.646 35.816 207.202 36.652L204.998 28.292C209.938 25.48 215.562 24.112 221.718 24.112ZM214.954 56.716C217.918 56.716 221.718 55.5 223.466 53.98L224.682 47.596C222.858 47.292 221.11 47.14 219.438 47.14C213.51 47.14 210.546 49.116 210.546 53.068C210.546 55.5 211.99 56.716 214.954 56.716ZM267.289 55.12L268.505 63.404C264.933 65.304 261.057 66.216 256.801 66.216C249.505 66.216 245.857 62.568 245.857 55.272C245.857 53.98 246.009 52.384 246.389 50.332L249.125 34.752H244.337L245.933 25.708H250.645L252.773 14.156H264.249L262.197 25.708H272.533L271.013 34.752H260.677L257.941 49.952C257.637 51.7 257.485 52.84 257.485 53.448C257.485 55.5 258.397 56.488 261.133 56.488C263.413 56.488 265.465 56.032 267.289 55.12ZM297.443 24.112C306.791 24.112 312.263 29.888 312.263 38.628C312.263 42.048 311.503 45.696 309.907 49.496H285.967C285.891 54.74 289.083 57.172 293.871 57.172C297.291 57.172 301.091 56.032 305.119 53.828L307.323 61.58C302.383 64.696 297.215 66.292 291.971 66.292C281.331 66.292 274.263 60.06 274.263 49.344C274.263 42.58 276.467 36.728 280.875 31.636C285.283 26.62 290.831 24.112 297.443 24.112ZM287.259 41.82H301.319C301.699 40.528 301.927 39.312 301.927 38.324C301.927 35.056 299.951 33.156 296.607 33.156C292.579 33.156 288.551 36.044 287.259 41.82ZM332.472 36.804C332.168 38.248 334.372 39.388 336.044 39.92C337.032 40.3 339.692 41.136 340.832 41.516C346.228 43.416 349.648 45.924 349.648 51.472C349.648 55.956 347.824 59.528 344.176 62.188C340.452 64.848 335.892 66.216 330.42 66.216C323.884 66.216 318.64 64.468 314.612 60.896L320.008 53.144C323.656 55.804 327.304 57.172 330.952 57.172C334.828 57.172 337.032 55.5 337.032 53.448C337.032 51.548 335.36 50.712 331.788 49.496C331.56 49.42 331.332 49.42 331.256 49.344C327.228 48.052 324.492 46.912 323.048 45.848C320.692 44.1 319.552 41.744 319.552 38.78C319.552 34.296 321.376 30.724 325.1 28.064C328.748 25.48 333.308 24.188 338.856 24.188C344.48 24.188 349.344 25.556 353.524 28.216L349.04 35.968C345.62 34.144 342.124 33.232 338.628 33.232C334.98 33.232 332.472 34.6 332.472 36.804Z" fill="#FE5708"/>
<path d="M22.852 239.38H16.624L17.308 235.636H27.748L25.66 247.624C22.528 249.604 19.144 250.576 15.472 250.576C9.928 250.576 5.068 247.84 5.068 240.352C5.068 234.592 7.588 229.336 12.088 226.276C14.356 224.764 16.876 224.008 19.648 224.008C23.464 224.008 26.452 225.412 28.576 228.256L25.732 230.956C24.04 228.976 21.988 228.004 19.576 228.004C16.768 228.004 14.428 229.228 12.52 231.64C10.612 234.052 9.676 236.86 9.676 240.064C9.676 242.404 10.288 244.06 11.476 245.068C12.664 246.076 14.176 246.58 15.976 246.58C18.172 246.58 20.116 246.076 21.772 245.104L22.852 239.38ZM40.1036 224.584H58.4996L57.8156 228.58H43.8836L42.7676 234.916H55.4756L54.7556 238.912H42.0836L40.8236 246.004H54.8996L54.1796 250H35.6396L40.1036 224.584ZM73.4084 250.576C69.5204 250.576 65.8484 249.208 63.7964 247.084L65.9564 243.808C67.7204 245.5 70.6724 246.544 73.5884 246.544C77.4404 246.544 79.4924 244.744 79.4924 242.836C79.6724 241.216 77.8724 240.316 76.1084 239.776C74.9924 239.416 72.9404 238.912 71.8244 238.48C68.5484 237.292 66.9284 235.312 66.9284 232.504C66.9284 230.2 67.8644 228.22 69.7724 226.528C71.6804 224.836 74.3084 224.008 77.6924 224.008C81.1124 224.008 84.0644 224.908 86.5484 226.744L84.4604 230.056C82.1204 228.688 79.7084 228.004 77.2964 228.004C73.8404 228.004 71.6444 229.696 71.6444 231.748C71.7884 233.044 72.3644 233.764 73.8404 234.34C74.8844 234.772 75.4244 234.88 76.8644 235.276C77.5484 235.456 78.0884 235.636 78.4844 235.744C82.1924 236.896 84.3524 238.624 84.3524 242.116C84.3524 244.384 83.4164 246.364 81.5804 248.056C79.7084 249.748 76.9724 250.576 73.4084 250.576ZM94.6391 224.584H115.123L114.439 228.58H106.411L102.667 250H98.1671L101.947 228.58H93.9551L94.6391 224.584ZM123.954 250H119.49L123.954 224.584H128.418L123.954 250ZM151.864 221.524H148.3L150.784 216.088H155.86L151.864 221.524ZM145.708 250.576C142.792 250.576 140.416 249.676 138.58 247.912C136.744 246.148 135.844 243.628 135.844 240.352C135.844 235.852 137.212 232 139.912 228.796C142.612 225.592 146.032 224.008 150.208 224.008C153.124 224.008 155.536 224.908 157.372 226.672C159.208 228.436 160.108 230.956 160.108 234.232C160.108 239.992 157.732 245.212 153.304 248.272C151.072 249.82 148.552 250.576 145.708 250.576ZM146.14 246.544C149.164 246.544 151.756 244.924 153.232 242.476C154.672 240.064 155.464 237.184 155.464 234.34C155.464 230.056 153.124 228.004 149.776 228.004C147.796 228.004 146.068 228.652 144.628 229.948C143.152 231.28 142.108 232.828 141.46 234.628C140.812 236.428 140.488 238.3 140.488 240.208C140.488 244.42 142.792 246.544 146.14 246.544ZM185.758 243.232L189.034 224.584H193.39L188.926 250H184.462L175.066 231.244L171.754 250H167.398L171.862 224.584H176.398L185.758 243.232ZM216.255 224.584H225.723C232.167 224.584 235.767 228.148 235.767 234.52C235.767 238.516 234.615 242.26 232.455 245.176C230.295 248.092 226.587 250 222.123 250H211.791L216.255 224.584ZM216.939 246.112H222.519C226.767 246.112 229.035 243.124 230.151 240.028C230.943 237.832 231.159 236.14 231.159 234.7C231.159 230.56 229.035 228.472 225.291 228.472H220.071L216.939 246.112ZM247.24 224.584H265.636L264.952 228.58H251.02L249.904 234.916H262.612L261.892 238.912H249.22L247.96 246.004H262.036L261.316 250H242.776L247.24 224.584ZM304.93 250H300.07L298.99 243.52H289.666L286.246 250H281.314L295.21 224.584H300.034L304.93 250ZM296.866 229.084L291.43 239.632H298.594L296.866 229.084ZM331.297 243.268L333.457 246.292C330.469 249.028 326.689 250.576 323.125 250.576C320.209 250.576 317.797 249.64 315.961 247.732C314.125 245.86 313.189 243.304 313.189 240.064C312.973 231.856 319.561 223.864 327.553 224.008C331.189 224.008 334.537 225.628 336.517 228.4L333.637 231.028C332.017 229.048 330.001 228.04 327.589 228.04C324.889 228.04 322.585 229.228 320.677 231.604C318.769 234.016 317.833 236.716 317.833 239.704C317.833 243.916 320.245 246.436 323.881 246.436C326.509 246.436 328.957 245.392 331.297 243.268ZM344.516 224.584H365L364.316 228.58H356.288L352.544 250H348.044L351.824 228.58H343.832L344.516 224.584ZM373.831 250H369.367L373.831 224.584H378.295L373.831 250ZM394.859 244.78L404.939 224.584H409.835L396.551 250H391.187L386.723 224.584H391.871L394.859 244.78ZM423.3 250.576C420.384 250.576 418.008 249.676 416.172 247.912C414.336 246.148 413.436 243.628 413.436 240.352C413.436 235.852 414.804 232 417.504 228.796C420.204 225.592 423.624 224.008 427.8 224.008C430.716 224.008 433.128 224.908 434.964 226.672C436.8 228.436 437.7 230.956 437.7 234.232C437.7 239.992 435.324 245.212 430.896 248.272C428.664 249.82 426.144 250.576 423.3 250.576ZM423.732 246.544C426.756 246.544 429.348 244.924 430.824 242.476C432.264 240.064 433.056 237.184 433.056 234.34C433.056 230.056 430.716 228.004 427.368 228.004C425.388 228.004 423.66 228.652 422.22 229.948C420.744 231.28 419.7 232.828 419.052 234.628C418.404 236.428 418.08 238.3 418.08 240.208C418.08 244.42 420.384 246.544 423.732 246.544ZM453.919 250.576C450.031 250.576 446.359 249.208 444.307 247.084L446.467 243.808C448.231 245.5 451.183 246.544 454.099 246.544C457.951 246.544 460.003 244.744 460.003 242.836C460.183 241.216 458.383 240.316 456.619 239.776C455.503 239.416 453.451 238.912 452.335 238.48C449.059 237.292 447.439 235.312 447.439 232.504C447.439 230.2 448.375 228.22 450.283 226.528C452.191 224.836 454.819 224.008 458.203 224.008C461.623 224.008 464.575 224.908 467.059 226.744L464.971 230.056C462.631 228.688 460.219 228.004 457.807 228.004C454.351 228.004 452.155 229.696 452.155 231.748C452.299 233.044 452.875 233.764 454.351 234.34C455.395 234.772 455.935 234.88 457.375 235.276C458.059 235.456 458.599 235.636 458.995 235.744C462.703 236.896 464.863 238.624 464.863 242.116C464.863 244.384 463.927 246.364 462.091 248.056C460.219 249.748 457.483 250.576 453.919 250.576Z" fill="#3D454C"/>
<g clip-path="url(#clip0_25_32)">
<path d="M0 197.838C12.4165 159.956 24.5104 122.559 36.7657 85C37.7332 85 38.5394 85 39.3457 85C58.3735 85 77.4014 84.8381 96.268 85.1619C102.234 85.1619 108.201 86.1332 114.006 86.7808C116.102 87.1046 118.198 87.914 120.295 88.8854C127.39 92.1232 130.776 98.1132 129.164 106.693C126.584 120.616 119.65 131.625 106.588 137.777C104.814 138.586 102.718 139.234 100.622 140.205C102.073 140.691 103.202 141.014 104.331 141.338C112.877 144.09 116.908 150.404 115.457 159.47C112.232 179.221 99.1705 192.819 79.0139 196.219C72.7251 197.352 66.1137 197.676 59.6636 197.676C40.3132 197.838 21.1241 197.838 1.77378 197.838C1.29002 197.838 0.967517 197.838 0 197.838ZM39.9907 177.278C48.8596 177.278 57.5673 177.764 66.1137 177.116C74.8213 176.468 80.3039 171.288 82.5615 162.708C84.174 156.394 82.239 152.509 75.7889 152.023C67.0812 151.375 58.2123 151.537 49.5046 151.375C49.0209 151.375 48.3759 151.861 48.2146 152.347C45.4733 160.603 42.732 168.86 39.9907 177.278ZM54.9872 131.625C62.2436 131.625 69.0162 131.787 75.7889 131.625C85.6253 131.301 91.9142 126.12 94.1717 116.569C95.623 110.417 93.3654 106.855 87.0766 106.37C81.2715 105.884 75.4664 106.046 69.6613 105.884C67.7262 105.884 65.3074 105.236 64.0174 106.208C62.7274 107.179 62.4049 109.607 61.7599 111.55C59.5023 118.026 57.2448 124.663 54.9872 131.625Z" fill="#022B6D"/>
<path d="M383.459 155.585C387.491 169.183 391.522 183.268 395.715 197.676C395.07 197.838 394.586 197.838 394.263 197.838C383.943 197.838 373.623 197.838 363.303 198C361.529 198 360.884 197.514 360.561 195.734C357.981 184.725 355.401 173.716 352.821 162.708C352.499 161.413 352.015 160.927 350.725 160.927C346.855 161.089 342.985 161.089 339.276 160.927C337.986 160.927 337.502 161.251 337.019 162.546C333.31 173.716 329.601 184.887 326.053 196.057C325.731 197.191 325.408 198 323.957 198C314.443 198 304.768 198 295.254 198C294.932 198 294.609 198 294.125 197.838C294.286 197.029 294.448 196.381 294.609 195.734C301.865 173.716 309.122 151.861 316.378 129.844C320.893 115.759 325.731 101.675 330.568 87.4284C331.213 85.6476 331.858 85 333.793 85C351.531 85.1619 369.269 85.1619 387.007 85.3238C392.812 85.3238 398.456 86.2951 403.938 88.3997C413.13 92.1232 418.129 99.4083 417 109.122C415.226 123.854 409.582 136.805 397.811 146.357C393.618 150.08 388.458 152.509 383.459 155.585ZM344.114 140.529C352.338 140.043 360.239 141.5 368.14 139.234C370.237 138.586 372.333 137.615 374.107 136.481C380.718 131.948 383.137 124.987 384.266 117.54C385.233 111.388 382.492 107.827 376.203 107.179C370.075 106.532 363.787 106.855 357.498 106.532C355.885 106.532 355.401 107.179 354.918 108.474C352.821 114.788 350.564 121.102 348.467 127.415C347.177 131.625 345.726 135.996 344.114 140.529Z" fill="#022B6D"/>
<path d="M177.539 197.838C179.958 190.391 182.216 183.268 184.635 176.145C194.471 146.842 204.469 117.702 214.305 88.3997C215.434 85 215.434 85 219.143 85C235.752 85 252.361 84.8381 268.809 85.1619C275.742 85.3238 282.515 86.457 289.449 87.2665C290.9 87.4284 292.351 88.0759 293.803 88.7235C303.639 92.6089 307.832 100.056 305.735 111.388C302.994 126.282 296.867 139.395 285.095 149.271C276.71 156.394 266.874 160.279 256.07 161.251C245.911 162.06 235.752 162.06 225.593 162.06C223.013 162.06 222.045 163.032 221.4 165.298C218.175 175.497 214.628 185.534 211.241 195.734C210.758 197.352 209.951 198 208.177 198C198.825 197.838 189.633 198 180.281 198C179.636 197.838 178.829 197.838 177.539 197.838ZM229.463 141.176C236.074 141.176 242.363 141.338 248.652 141.176C253.328 141.014 258.005 140.043 262.036 137.129C268.164 132.596 270.744 126.12 272.356 119.159C273.969 112.36 271.227 107.827 264.293 107.179C257.037 106.532 249.781 106.693 242.524 106.693C242.041 106.693 241.234 107.665 240.912 108.312C239.461 112.521 238.009 116.731 236.558 120.778C234.3 127.577 231.882 134.215 229.463 141.176Z" fill="#022B6D"/>
<path d="M192.697 85C189.956 93.0946 187.537 100.703 184.957 108.312C175.282 137.291 165.445 166.431 155.77 195.41C155.125 197.352 154.319 197.838 152.384 197.838C142.548 197.676 132.872 197.838 123.036 197.838C122.391 197.838 121.585 197.838 120.617 197.838C122.23 192.981 123.681 188.448 125.132 183.915C135.775 151.699 146.579 119.645 157.222 87.4284C157.867 85.4857 158.834 84.8381 160.769 85C171.251 85.1619 181.732 85 192.697 85Z" fill="#022B6D"/>
</g>
<path d="M519.475 130.132C516.988 133.16 514.856 135.297 512.901 137.79C512.546 138.146 512.901 139.037 512.901 139.749C512.901 140.996 513.079 142.42 512.368 143.133C511.302 144.558 510.236 143.311 509.348 142.599C500.109 134.406 490.693 126.214 481.454 117.843C480.921 117.309 480.21 115.884 480.565 115.528C481.098 114.816 482.342 113.747 483.23 113.925C484.829 114.281 485.54 113.569 486.428 112.5C493.002 104.842 499.754 97.1843 506.505 89.5262C507.394 88.6357 508.104 87.9233 507.216 86.3205C506.861 85.7862 507.571 84.3614 508.282 83.8272C508.815 83.471 510.236 83.6491 510.769 84.1833C520.008 92.1976 529.069 100.39 538.13 108.76C538.841 109.295 539.374 110.898 539.019 111.61C538.486 112.857 537.242 113.391 535.821 112.5C535.465 112.322 534.577 112.5 534.399 112.857C531.912 115.706 529.602 118.556 527.115 121.405C528.892 122.652 530.313 123.899 532.623 122.83C533.333 122.474 535.11 123.008 535.821 123.72C536.354 124.255 536.709 126.036 536.176 126.748C534.755 129.063 536.354 130.31 537.597 130.844C543.283 133.16 547.014 137.968 551.456 141.708C563.004 151.503 574.197 161.655 585.568 171.628C592.142 177.505 598.716 183.382 605.29 189.26C608.843 192.465 609.198 198.164 606.178 201.726C602.98 205.466 597.294 206.001 593.563 202.439C588.056 197.452 582.903 192.287 577.573 187.122C562.649 172.519 547.902 157.915 533.156 143.311C531.734 141.886 530.491 140.105 529.247 138.324C528.359 137.078 527.648 136.365 525.871 137.078C523.384 138.324 521.785 136.9 521.607 134.05C521.785 132.981 520.541 131.913 519.475 130.132Z" fill="#FE5708"/>
<path d="M435.793 171.984C432.417 165.217 430.285 158.093 429.219 150.791C425.488 126.036 430.285 103.061 444.143 82.4024C460.489 57.8253 483.586 43.3996 512.901 39.6596C548.791 35.0291 584.68 55.1538 600.67 88.2796C608.31 103.952 611.863 120.159 610.62 137.612C610.62 138.146 610.62 138.502 610.62 138.502C610.087 133.694 609.731 128.351 608.843 123.186C601.914 86.1424 574.197 59.0719 537.064 52.6605C499.043 46.2491 460.311 66.0176 443.077 100.568C435.793 114.994 432.061 130.132 432.061 146.339C432.061 154.709 433.305 162.901 435.437 170.916C435.615 171.094 435.793 171.628 435.793 171.984Z" fill="#022B6D"/>
<path d="M435.793 171.984C432.417 165.217 430.285 158.093 429.219 150.791C425.488 126.036 430.285 103.061 444.143 82.4024C460.489 57.8253 483.586 43.3996 512.901 39.6596C548.791 35.0291 584.68 55.1538 600.67 88.2796C608.31 103.952 611.863 120.159 610.62 137.612C610.62 138.146 610.62 138.502 610.62 138.502C610.087 133.694 609.731 128.351 608.843 123.186C601.914 86.1424 574.197 59.0719 537.064 52.6605C499.043 46.2491 460.311 66.0176 443.077 100.568C435.793 114.994 432.061 130.132 432.061 146.339C432.061 154.709 433.305 162.901 435.437 170.916C435.615 171.094 435.793 171.628 435.793 171.984Z" stroke="#022B6D" stroke-width="2"/>
<path d="M441.3 196.918C439.701 188.903 445.387 181.78 453.382 181.78C476.301 181.78 499.398 181.78 522.318 181.78C528.892 181.78 533.689 186.588 533.689 193.178C533.689 194.424 533.689 195.493 533.689 196.918C502.774 196.918 472.037 196.918 441.3 196.918Z" fill="#FE5708"/>
<path d="M569.933 191.931C572.954 194.78 575.796 197.452 578.639 200.301C558.562 223.454 513.967 236.811 480.21 215.44C514.5 223.632 544.349 216.686 569.933 191.931Z" fill="#022B6D"/>
<path d="M569.933 191.931C572.954 194.78 575.796 197.452 578.639 200.301C558.562 223.454 513.967 236.811 480.21 215.44C514.5 223.632 544.349 216.686 569.933 191.931Z" stroke="#022B6D" stroke-width="3"/>
<path d="M553.41 64.5929C595.873 79.3748 615.95 128.885 596.939 171.094C594.096 168.6 591.076 166.107 588.411 163.436C587.878 163.08 588.233 161.477 588.589 160.586C592.675 150.257 594.807 139.393 594.274 128.173C593.208 104.486 582.725 85.6081 564.07 71.0043C562.471 69.7577 560.694 68.511 558.918 67.4424C557.141 66.5519 555.187 65.6615 553.41 64.5929Z" fill="#022B6D"/>
<path d="M553.41 64.5929C595.873 79.3748 615.95 128.885 596.939 171.094C594.096 168.6 591.076 166.107 588.411 163.436C587.878 163.08 588.233 161.477 588.589 160.586C592.675 150.257 594.807 139.393 594.274 128.173C593.208 104.486 582.725 85.6081 564.07 71.0043C562.471 69.7577 560.694 68.511 558.918 67.4424C557.141 66.5519 555.187 65.6615 553.41 64.5929Z" stroke="#022B6D" stroke-width="3"/>
<path d="M476.479 121.049C477.723 121.583 478.966 122.118 480.032 123.008C488.205 130.31 496.556 137.434 504.729 144.736C508.104 147.763 508.46 151.503 505.617 154.887C502.596 158.271 497.799 158.983 494.601 156.134C488.916 151.147 483.23 146.161 477.723 140.996C475.413 139.037 473.281 136.9 470.971 134.941C468.306 132.447 467.595 129.776 468.839 126.57C469.905 123.364 472.926 121.405 476.479 121.049Z" fill="#FE5708"/>
<path d="M521.962 68.8672C523.561 69.5796 525.338 70.1139 526.582 71.1824C534.577 78.3062 542.572 85.43 550.567 92.5539C553.588 95.4034 553.232 99.8558 550.034 103.24C547.369 106.089 543.638 106.267 540.618 103.596C532.623 96.65 524.627 89.5262 516.81 82.4024C514.145 80.0872 513.434 77.0596 514.678 73.8539C515.389 71.1824 518.587 69.2234 521.962 68.8672Z" fill="#FE5708"/>
<path d="M522.495 176.437C499.576 176.437 476.657 176.437 453.737 176.437C453.382 172.162 457.291 168.066 461.91 167.888C465.108 167.71 468.484 167.888 471.682 167.888C485.718 167.888 499.754 167.888 513.79 167.888C519.12 167.888 522.673 171.45 522.495 176.437Z" fill="#FE5708"/>
<defs>
<clipPath id="clip0_25_32">
<rect width="417" height="113" fill="white" transform="translate(0 85)"/>
</clipPath>
</defs>
</svg>
