<svg width="825" height="397" viewBox="0 0 825 397" fill="none" xmlns="http://www.w3.org/2000/svg">
<path d="M119.788 87.404L126.476 108H112.948L107.4 89.304H97.824L94.48 108H82.852L92.276 54.344H115C126.476 54.344 132.176 58.904 132.176 68.024C132.176 77.068 127.996 84.592 119.788 87.404ZM114.164 64.452H102.156L99.648 79.044H111.048C116.596 79.044 120.168 75.244 120.168 69.392C120.168 65.744 118.192 64.452 114.164 64.452ZM157.121 67.112C166.469 67.112 171.941 72.888 171.941 81.628C171.941 85.048 171.181 88.696 169.585 92.496H145.645C145.569 97.74 148.761 100.172 153.549 100.172C156.969 100.172 160.769 99.032 164.797 96.828L167.001 104.58C162.061 107.696 156.893 109.292 151.649 109.292C141.009 109.292 133.941 103.06 133.941 92.344C133.941 85.58 136.145 79.728 140.553 74.636C144.961 69.62 150.509 67.112 157.121 67.112ZM146.937 84.82H160.997C161.377 83.528 161.605 82.312 161.605 81.324C161.605 78.056 159.629 76.156 156.285 76.156C152.257 76.156 148.229 79.044 146.937 84.82ZM175.207 108L182.199 68.556H192.003L191.775 72.812C196.183 68.936 200.515 67.036 204.847 67.036C209.331 67.036 212.903 69.316 214.423 72.888C218.907 68.936 223.771 66.96 228.863 66.96C235.551 66.96 240.339 71.064 240.339 78.74C240.339 80.184 240.187 81.856 239.883 83.68L235.551 108H224.075L228.179 84.668C228.407 83.224 228.559 82.084 228.559 81.172C228.559 78.36 227.191 76.992 224.379 76.992C221.415 76.992 218.603 78.436 215.943 81.4C215.943 81.476 215.715 82.616 215.335 84.82L211.231 108H199.679L203.859 84.06C204.087 82.16 204.239 81.096 204.239 80.868C204.239 78.284 202.947 76.992 200.363 76.992C197.551 76.992 194.663 78.512 191.547 81.476L186.759 108H175.207ZM268.718 67.112C278.522 67.112 283.994 71.672 283.994 80.792C283.994 82.16 283.766 84.44 283.234 87.556L279.662 108H269.402L269.858 105.036C266.286 107.848 262.258 109.216 257.85 109.216C250.554 109.216 246.07 105.036 246.07 98.12C246.07 87.708 253.746 82.54 265.602 82.54C268.262 82.54 270.694 82.768 272.898 83.224C273.126 82.388 273.202 81.628 273.202 80.944C273.506 77.6 270.846 76.384 266.818 76.384C264.766 76.384 262.486 76.688 260.054 77.372C257.622 78.056 255.646 78.816 254.202 79.652L251.998 71.292C256.938 68.48 262.562 67.112 268.718 67.112ZM261.954 99.716C264.918 99.716 268.718 98.5 270.466 96.98L271.682 90.596C269.858 90.292 268.11 90.14 266.438 90.14C260.51 90.14 257.546 92.116 257.546 96.068C257.546 98.5 258.99 99.716 261.954 99.716ZM314.289 98.12L315.505 106.404C311.933 108.304 308.057 109.216 303.801 109.216C296.505 109.216 292.857 105.568 292.857 98.272C292.857 96.98 293.009 95.384 293.389 93.332L296.125 77.752H291.337L292.933 68.708H297.645L299.773 57.156H311.249L309.197 68.708H319.533L318.013 77.752H307.677L304.941 92.952C304.637 94.7 304.485 95.84 304.485 96.448C304.485 98.5 305.397 99.488 308.133 99.488C310.413 99.488 312.465 99.032 314.289 98.12ZM344.443 67.112C353.791 67.112 359.263 72.888 359.263 81.628C359.263 85.048 358.503 88.696 356.907 92.496H332.967C332.891 97.74 336.083 100.172 340.871 100.172C344.291 100.172 348.091 99.032 352.119 96.828L354.323 104.58C349.383 107.696 344.215 109.292 338.971 109.292C328.331 109.292 321.263 103.06 321.263 92.344C321.263 85.58 323.467 79.728 327.875 74.636C332.283 69.62 337.831 67.112 344.443 67.112ZM334.259 84.82H348.319C348.699 83.528 348.927 82.312 348.927 81.324C348.927 78.056 346.951 76.156 343.607 76.156C339.579 76.156 335.551 79.044 334.259 84.82ZM379.472 79.804C379.168 81.248 381.372 82.388 383.044 82.92C384.032 83.3 386.692 84.136 387.832 84.516C393.228 86.416 396.648 88.924 396.648 94.472C396.648 98.956 394.824 102.528 391.176 105.188C387.452 107.848 382.892 109.216 377.42 109.216C370.884 109.216 365.64 107.468 361.612 103.896L367.008 96.144C370.656 98.804 374.304 100.172 377.952 100.172C381.828 100.172 384.032 98.5 384.032 96.448C384.032 94.548 382.36 93.712 378.788 92.496C378.56 92.42 378.332 92.42 378.256 92.344C374.228 91.052 371.492 89.912 370.048 88.848C367.692 87.1 366.552 84.744 366.552 81.78C366.552 77.296 368.376 73.724 372.1 71.064C375.748 68.48 380.308 67.188 385.856 67.188C391.48 67.188 396.344 68.556 400.524 71.216L396.04 78.968C392.62 77.144 389.124 76.232 385.628 76.232C381.98 76.232 379.472 77.6 379.472 79.804Z" fill="#E1E1E1"/>
<path d="M69.852 282.38H63.624L64.308 278.636H74.748L72.66 290.624C69.528 292.604 66.144 293.576 62.472 293.576C56.928 293.576 52.068 290.84 52.068 283.352C52.068 277.592 54.588 272.336 59.088 269.276C61.356 267.764 63.876 267.008 66.648 267.008C70.464 267.008 73.452 268.412 75.576 271.256L72.732 273.956C71.04 271.976 68.988 271.004 66.576 271.004C63.768 271.004 61.428 272.228 59.52 274.64C57.612 277.052 56.676 279.86 56.676 283.064C56.676 285.404 57.288 287.06 58.476 288.068C59.664 289.076 61.176 289.58 62.976 289.58C65.172 289.58 67.116 289.076 68.772 288.104L69.852 282.38ZM87.1036 267.584H105.5L104.816 271.58H90.8836L89.7676 277.916H102.476L101.756 281.912H89.0836L87.8236 289.004H101.9L101.18 293H82.6396L87.1036 267.584ZM120.408 293.576C116.52 293.576 112.848 292.208 110.796 290.084L112.956 286.808C114.72 288.5 117.672 289.544 120.588 289.544C124.44 289.544 126.492 287.744 126.492 285.836C126.672 284.216 124.872 283.316 123.108 282.776C121.992 282.416 119.94 281.912 118.824 281.48C115.548 280.292 113.928 278.312 113.928 275.504C113.928 273.2 114.864 271.22 116.772 269.528C118.68 267.836 121.308 267.008 124.692 267.008C128.112 267.008 131.064 267.908 133.548 269.744L131.46 273.056C129.12 271.688 126.708 271.004 124.296 271.004C120.84 271.004 118.644 272.696 118.644 274.748C118.788 276.044 119.364 276.764 120.84 277.34C121.884 277.772 122.424 277.88 123.864 278.276C124.548 278.456 125.088 278.636 125.484 278.744C129.192 279.896 131.352 281.624 131.352 285.116C131.352 287.384 130.416 289.364 128.58 291.056C126.708 292.748 123.972 293.576 120.408 293.576ZM141.639 267.584H162.123L161.439 271.58H153.411L149.667 293H145.167L148.947 271.58H140.955L141.639 267.584ZM170.954 293H166.49L170.954 267.584H175.418L170.954 293ZM198.864 264.524H195.3L197.784 259.088H202.86L198.864 264.524ZM192.708 293.576C189.792 293.576 187.416 292.676 185.58 290.912C183.744 289.148 182.844 286.628 182.844 283.352C182.844 278.852 184.212 275 186.912 271.796C189.612 268.592 193.032 267.008 197.208 267.008C200.124 267.008 202.536 267.908 204.372 269.672C206.208 271.436 207.108 273.956 207.108 277.232C207.108 282.992 204.732 288.212 200.304 291.272C198.072 292.82 195.552 293.576 192.708 293.576ZM193.14 289.544C196.164 289.544 198.756 287.924 200.232 285.476C201.672 283.064 202.464 280.184 202.464 277.34C202.464 273.056 200.124 271.004 196.776 271.004C194.796 271.004 193.068 271.652 191.628 272.948C190.152 274.28 189.108 275.828 188.46 277.628C187.812 279.428 187.488 281.3 187.488 283.208C187.488 287.42 189.792 289.544 193.14 289.544ZM232.758 286.232L236.034 267.584H240.39L235.926 293H231.462L222.066 274.244L218.754 293H214.398L218.862 267.584H223.398L232.758 286.232ZM263.255 267.584H272.723C279.167 267.584 282.767 271.148 282.767 277.52C282.767 281.516 281.615 285.26 279.455 288.176C277.295 291.092 273.587 293 269.123 293H258.791L263.255 267.584ZM263.939 289.112H269.519C273.767 289.112 276.035 286.124 277.151 283.028C277.943 280.832 278.159 279.14 278.159 277.7C278.159 273.56 276.035 271.472 272.291 271.472H267.071L263.939 289.112ZM294.24 267.584H312.636L311.952 271.58H298.02L296.904 277.916H309.612L308.892 281.912H296.22L294.96 289.004H309.036L308.316 293H289.776L294.24 267.584ZM351.93 293H347.07L345.99 286.52H336.666L333.246 293H328.314L342.21 267.584H347.034L351.93 293ZM343.866 272.084L338.43 282.632H345.594L343.866 272.084ZM378.297 286.268L380.457 289.292C377.469 292.028 373.689 293.576 370.125 293.576C367.209 293.576 364.797 292.64 362.961 290.732C361.125 288.86 360.189 286.304 360.189 283.064C359.973 274.856 366.561 266.864 374.553 267.008C378.189 267.008 381.537 268.628 383.517 271.4L380.637 274.028C379.017 272.048 377.001 271.04 374.589 271.04C371.889 271.04 369.585 272.228 367.677 274.604C365.769 277.016 364.833 279.716 364.833 282.704C364.833 286.916 367.245 289.436 370.881 289.436C373.509 289.436 375.957 288.392 378.297 286.268ZM391.516 267.584H412L411.316 271.58H403.288L399.544 293H395.044L398.824 271.58H390.832L391.516 267.584ZM420.831 293H416.367L420.831 267.584H425.295L420.831 293ZM441.859 287.78L451.939 267.584H456.835L443.551 293H438.187L433.723 267.584H438.871L441.859 287.78ZM470.3 293.576C467.384 293.576 465.008 292.676 463.172 290.912C461.336 289.148 460.436 286.628 460.436 283.352C460.436 278.852 461.804 275 464.504 271.796C467.204 268.592 470.624 267.008 474.8 267.008C477.716 267.008 480.128 267.908 481.964 269.672C483.8 271.436 484.7 273.956 484.7 277.232C484.7 282.992 482.324 288.212 477.896 291.272C475.664 292.82 473.144 293.576 470.3 293.576ZM470.732 289.544C473.756 289.544 476.348 287.924 477.824 285.476C479.264 283.064 480.056 280.184 480.056 277.34C480.056 273.056 477.716 271.004 474.368 271.004C472.388 271.004 470.66 271.652 469.22 272.948C467.744 274.28 466.7 275.828 466.052 277.628C465.404 279.428 465.08 281.3 465.08 283.208C465.08 287.42 467.384 289.544 470.732 289.544ZM500.919 293.576C497.031 293.576 493.359 292.208 491.307 290.084L493.467 286.808C495.231 288.5 498.183 289.544 501.099 289.544C504.951 289.544 507.003 287.744 507.003 285.836C507.183 284.216 505.383 283.316 503.619 282.776C502.503 282.416 500.451 281.912 499.335 281.48C496.059 280.292 494.439 278.312 494.439 275.504C494.439 273.2 495.375 271.22 497.283 269.528C499.191 267.836 501.819 267.008 505.203 267.008C508.623 267.008 511.575 267.908 514.059 269.744L511.971 273.056C509.631 271.688 507.219 271.004 504.807 271.004C501.351 271.004 499.155 272.696 499.155 274.748C499.299 276.044 499.875 276.764 501.351 277.34C502.395 277.772 502.935 277.88 504.375 278.276C505.059 278.456 505.599 278.636 505.995 278.744C509.703 279.896 511.863 281.624 511.863 285.116C511.863 287.384 510.927 289.364 509.091 291.056C507.219 292.748 504.483 293.576 500.919 293.576Z" fill="#E1E1E1"/>
<g clip-path="url(#clip0_31_63)">
<path d="M47 240.838C59.4165 202.956 71.5104 165.559 83.7657 128C84.7332 128 85.5394 128 86.3457 128C105.374 128 124.401 127.838 143.268 128.162C149.234 128.162 155.201 129.133 161.006 129.781C163.102 130.105 165.198 130.914 167.295 131.885C174.39 135.123 177.776 141.113 176.164 149.693C173.584 163.616 166.65 174.625 153.588 180.776C151.814 181.586 149.718 182.233 147.622 183.205C149.073 183.69 150.202 184.014 151.331 184.338C159.877 187.09 163.908 193.404 162.457 202.47C159.232 222.221 146.171 235.819 126.014 239.219C119.725 240.352 113.114 240.676 106.664 240.676C87.3132 240.838 68.1241 240.838 48.7738 240.838C48.29 240.838 47.9675 240.838 47 240.838ZM86.9907 220.278C95.8596 220.278 104.567 220.764 113.114 220.116C121.821 219.468 127.304 214.288 129.561 205.708C131.174 199.394 129.239 195.509 122.789 195.023C114.081 194.375 105.212 194.537 96.5046 194.375C96.0209 194.375 95.3759 194.861 95.2146 195.347C92.4733 203.603 89.732 211.86 86.9907 220.278ZM101.987 174.625C109.244 174.625 116.016 174.786 122.789 174.625C132.625 174.301 138.914 169.12 141.172 159.569C142.623 153.417 140.365 149.855 134.077 149.37C128.271 148.884 122.466 149.046 116.661 148.884C114.726 148.884 112.307 148.236 111.017 149.208C109.727 150.179 109.405 152.607 108.76 154.55C106.502 161.026 104.245 167.663 101.987 174.625Z" fill="#A2A2A2"/>
<path d="M430.459 198.585C434.491 212.183 438.522 226.268 442.715 240.676C442.07 240.838 441.586 240.838 441.263 240.838C430.943 240.838 420.623 240.838 410.303 241C408.529 241 407.884 240.514 407.561 238.734C404.981 227.725 402.401 216.716 399.821 205.708C399.499 204.413 399.015 203.927 397.725 203.927C393.855 204.089 389.985 204.089 386.276 203.927C384.986 203.927 384.502 204.251 384.019 205.546C380.31 216.716 376.601 227.887 373.053 239.057C372.731 240.191 372.408 241 370.957 241C361.443 241 351.768 241 342.254 241C341.932 241 341.609 241 341.125 240.838C341.286 240.029 341.448 239.381 341.609 238.734C348.865 216.716 356.122 194.861 363.378 172.844C367.893 158.759 372.731 144.675 377.568 130.428C378.213 128.648 378.858 128 380.793 128C398.531 128.162 416.269 128.162 434.007 128.324C439.812 128.324 445.456 129.295 450.938 131.4C460.13 135.123 465.129 142.408 464 152.122C462.226 166.854 456.582 179.805 444.811 189.357C440.618 193.08 435.458 195.509 430.459 198.585ZM391.114 183.529C399.338 183.043 407.239 184.5 415.14 182.234C417.237 181.586 419.333 180.615 421.107 179.481C427.718 174.948 430.137 167.987 431.266 160.54C432.233 154.388 429.492 150.827 423.203 150.179C417.075 149.532 410.787 149.855 404.498 149.532C402.885 149.532 402.401 150.179 401.918 151.474C399.821 157.788 397.564 164.102 395.467 170.415C394.177 174.625 392.726 178.996 391.114 183.529Z" fill="#A2A2A2"/>
<path d="M224.539 240.838C226.958 233.391 229.216 226.268 231.635 219.145C241.471 189.842 251.469 160.702 261.305 131.4C262.434 128 262.434 128 266.143 128C282.752 128 299.361 127.838 315.809 128.162C322.742 128.324 329.515 129.457 336.449 130.266C337.9 130.428 339.351 131.076 340.803 131.723C350.639 135.609 354.832 143.056 352.735 154.388C349.994 169.282 343.867 182.395 332.095 192.271C323.71 199.394 313.874 203.279 303.07 204.251C292.911 205.06 282.752 205.06 272.593 205.06C270.013 205.06 269.045 206.031 268.4 208.298C265.175 218.497 261.628 228.534 258.241 238.733C257.758 240.352 256.951 241 255.177 241C245.825 240.838 236.633 241 227.281 241C226.636 240.838 225.829 240.838 224.539 240.838ZM276.463 184.176C283.074 184.176 289.363 184.338 295.652 184.176C300.328 184.014 305.005 183.043 309.036 180.129C315.164 175.596 317.744 169.12 319.356 162.159C320.969 155.36 318.227 150.827 311.293 150.179C304.037 149.531 296.781 149.693 289.524 149.693C289.041 149.693 288.234 150.665 287.912 151.312C286.461 155.521 285.009 159.731 283.558 163.778C281.3 170.577 278.882 177.215 276.463 184.176Z" fill="#A2A2A2"/>
<path d="M239.697 128C236.956 136.095 234.537 143.703 231.957 151.312C222.282 180.291 212.445 209.431 202.77 238.41C202.125 240.352 201.319 240.838 199.384 240.838C189.548 240.676 179.872 240.838 170.036 240.838C169.391 240.838 168.585 240.838 167.617 240.838C169.23 235.981 170.681 231.448 172.132 226.915C182.775 194.699 193.579 162.645 204.222 130.428C204.867 128.486 205.834 127.838 207.769 128C218.251 128.162 228.732 128 239.697 128Z" fill="#A2A2A2"/>
</g>
<path d="M566.475 173.132C563.988 176.16 561.856 178.297 559.901 180.79C559.546 181.146 559.901 182.037 559.901 182.749C559.901 183.996 560.079 185.42 559.368 186.133C558.302 187.558 557.236 186.311 556.348 185.599C547.109 177.406 537.693 169.214 528.454 160.843C527.921 160.309 527.21 158.884 527.565 158.528C528.098 157.816 529.342 156.747 530.23 156.925C531.829 157.281 532.54 156.569 533.428 155.5C540.002 147.842 546.754 140.184 553.505 132.526C554.394 131.636 555.104 130.923 554.216 129.32C553.861 128.786 554.571 127.361 555.282 126.827C555.815 126.471 557.236 126.649 557.769 127.183C567.008 135.198 576.069 143.39 585.13 151.76C585.841 152.295 586.374 153.898 586.019 154.61C585.486 155.857 584.242 156.391 582.821 155.5C582.465 155.322 581.577 155.5 581.399 155.857C578.912 158.706 576.602 161.556 574.115 164.405C575.892 165.652 577.313 166.899 579.623 165.83C580.333 165.474 582.11 166.008 582.821 166.72C583.354 167.255 583.709 169.036 583.176 169.748C581.755 172.063 583.354 173.31 584.597 173.844C590.283 176.16 594.014 180.968 598.456 184.708C610.004 194.503 621.197 204.655 632.568 214.628C639.142 220.505 645.716 226.382 652.29 232.26C655.843 235.465 656.198 241.164 653.178 244.726C649.98 248.466 644.294 249.001 640.563 245.439C635.056 240.452 629.903 235.287 624.573 230.122C609.649 215.519 594.902 200.915 580.156 186.311C578.734 184.886 577.491 183.105 576.247 181.324C575.359 180.078 574.648 179.365 572.871 180.078C570.384 181.324 568.785 179.9 568.607 177.05C568.785 175.981 567.541 174.913 566.475 173.132Z" fill="#E1E1E1"/>
<path d="M482.793 214.984C479.417 208.217 477.285 201.093 476.219 193.791C472.488 169.036 477.285 146.061 491.143 125.402C507.489 100.825 530.586 86.3996 559.901 82.6596C595.791 78.0291 631.68 98.1538 647.67 131.28C655.31 146.952 658.863 163.159 657.62 180.612C657.62 181.146 657.62 181.502 657.62 181.502C657.087 176.694 656.731 171.351 655.843 166.186C648.914 129.142 621.197 102.072 584.064 95.6605C546.043 89.2491 507.311 109.018 490.077 143.568C482.793 157.994 479.061 173.132 479.061 189.339C479.061 197.709 480.305 205.901 482.437 213.916C482.615 214.094 482.793 214.628 482.793 214.984Z" fill="#A2A2A2" stroke="#A2A2A2" stroke-width="2"/>
<path d="M488.3 239.918C486.701 231.903 492.387 224.78 500.382 224.78C523.301 224.78 546.398 224.78 569.318 224.78C575.892 224.78 580.689 229.588 580.689 236.178C580.689 237.424 580.689 238.493 580.689 239.918C549.774 239.918 519.037 239.918 488.3 239.918Z" fill="#E1E1E1"/>
<path d="M616.933 234.931C619.954 237.78 622.796 240.452 625.639 243.301C605.562 266.454 560.967 279.811 527.21 258.439C561.5 266.632 591.349 259.686 616.933 234.931Z" fill="#A2A2A2" stroke="#A2A2A2" stroke-width="3"/>
<path d="M600.41 107.593C642.873 122.375 662.95 171.885 643.939 214.094C641.096 211.6 638.076 209.107 635.411 206.436C634.878 206.08 635.233 204.477 635.589 203.586C639.675 193.257 641.807 182.393 641.274 171.173C640.208 147.486 629.725 128.608 611.07 114.004C609.471 112.758 607.694 111.511 605.918 110.442C604.141 109.552 602.187 108.661 600.41 107.593Z" fill="#A2A2A2" stroke="#A2A2A2" stroke-width="3"/>
<path d="M523.479 164.049C524.723 164.583 525.966 165.118 527.032 166.008C535.205 173.31 543.556 180.434 551.729 187.736C555.104 190.763 555.46 194.503 552.617 197.887C549.596 201.271 544.799 201.983 541.601 199.134C535.916 194.147 530.23 189.161 524.723 183.996C522.413 182.037 520.281 179.9 517.971 177.941C515.306 175.447 514.595 172.776 515.839 169.57C516.905 166.364 519.926 164.405 523.479 164.049Z" fill="#E1E1E1"/>
<path d="M568.962 111.867C570.561 112.58 572.338 113.114 573.582 114.182C581.577 121.306 589.572 128.43 597.567 135.554C600.588 138.403 600.232 142.856 597.034 146.24C594.369 149.089 590.638 149.267 587.618 146.596C579.623 139.65 571.627 132.526 563.81 125.402C561.145 123.087 560.434 120.06 561.678 116.854C562.389 114.182 565.587 112.223 568.962 111.867Z" fill="#E1E1E1"/>
<path d="M569.495 219.437C546.576 219.437 523.657 219.437 500.737 219.437C500.382 215.162 504.291 211.066 508.91 210.888C512.108 210.71 515.484 210.888 518.682 210.888C532.718 210.888 546.754 210.888 560.79 210.888C566.12 210.888 569.673 214.45 569.495 219.437Z" fill="#E1E1E1"/>
<defs>
<clipPath id="clip0_31_63">
<rect width="417" height="113" fill="white" transform="translate(47 128)"/>
</clipPath>
</defs>
</svg>
